<svg width="57" height="56" viewBox="0 0 57 56" fill="none" xmlns="http://www.w3.org/2000/svg">
<path d="M45.3234 35.0234C42.78 34.8601 40.1667 35.7933 38.23 37.73C34.59 41.37 34.59 47.2734 38.23 50.9368C39.4667 52.1734 40.9833 52.9901 42.5933 53.3867C43.48 53.6201 44.4133 53.69 45.3467 53.6434C47.5633 53.55 49.7333 52.6635 51.4367 50.9601C53.84 48.5568 54.6567 45.1734 53.8867 42.1167C53.5133 40.5067 52.6733 38.99 51.4367 37.7534C49.7567 36.05 47.5634 35.1401 45.3234 35.0234ZM50.06 44.2867C50.06 44.7767 49.8733 45.1967 49.5467 45.5234C49.22 45.8501 48.8 46.0367 48.31 46.0367H46.5833V47.8567C46.5833 48.3467 46.3967 48.7667 46.07 49.0933C45.7433 49.42 45.3233 49.6067 44.8333 49.6067C43.8767 49.6067 43.0833 48.8134 43.0833 47.8567V46.0367H41.3333C40.3767 46.0367 39.5833 45.2433 39.5833 44.2867C39.5833 43.33 40.3767 42.5367 41.3333 42.5367H43.0833V40.8801C43.0833 39.9234 43.8767 39.1301 44.8333 39.1301C45.79 39.1301 46.5833 39.9234 46.5833 40.8801V42.5367H48.31C49.29 42.5367 50.06 43.33 50.06 44.2867Z" fill="#F3542C"/>
<path opacity="0.4" d="M38.6266 51.2633C37.9266 50.6566 37.32 49.9333 36.8533 49.14C35.99 47.74 35.5 46.0833 35.5 44.3333C35.5 39.1767 39.6766 35 44.8333 35C47.5866 35 50.0833 36.19 51.7633 38.1034C51.7866 38.1267 51.7866 38.1499 51.81 38.1499C51.81 38.0099 51.8333 37.8933 51.8333 37.7767V18.2233C51.8333 9.73 46.77 4.66667 38.2766 4.66667H18.7233C18.07 4.66667 17.44 4.68998 16.8333 4.78331C9.48329 5.45998 5.16663 10.3833 5.16663 18.2233V37.7767C5.16663 45.6167 9.48329 50.54 16.8333 51.2167C17.44 51.31 18.07 51.3333 18.7233 51.3333H38.2766C38.4166 51.3333 38.5333 51.31 38.6733 51.31C38.6733 51.2866 38.6499 51.2866 38.6266 51.2633Z" fill="#F3542C"/>
<path d="M32.6533 12.3667C31.9066 11.7833 30.5533 11.2233 28.4066 11.8067L21.4533 13.72C19.3766 14.2567 18.0233 16.0067 18.0233 18.2V22.2833V27.3234C17.4866 27.1367 16.9033 26.9967 16.2966 26.9967C13.4033 26.9967 11.0699 29.3533 11.0699 32.2233C11.0699 35.0933 13.4266 37.45 16.2966 37.45C19.1433 37.45 21.4766 35.14 21.5233 32.3166C21.5233 32.2933 21.5466 32.27 21.5466 32.2467V23.6133L30.81 21.0933V25.0133C30.2733 24.8266 29.69 24.6867 29.06 24.6867C26.1666 24.6867 23.8333 27.0434 23.8333 29.9134C23.8333 32.8067 26.19 35.14 29.06 35.14C31.9066 35.14 34.2399 32.83 34.2866 29.9833C34.2866 29.96 34.31 29.9367 34.31 29.89V18.7833V16.2866C34.2866 14.5133 33.7266 13.1833 32.6533 12.3667ZM16.2733 33.95C15.3166 33.95 14.5466 33.18 14.5466 32.2233C14.5466 31.2667 15.3166 30.4967 16.2733 30.4967C17.2299 30.4967 17.9999 31.2667 17.9999 32.2233C17.9999 33.18 17.2299 33.95 16.2733 33.95ZM29.0366 31.6167C28.0799 31.6167 27.31 30.8467 27.31 29.89C27.31 28.9333 28.0799 28.1634 29.0366 28.1634C29.9933 28.1634 30.7633 28.9333 30.7633 29.89C30.7633 30.8467 29.9933 31.6167 29.0366 31.6167Z" fill="#F3542C"/>
</svg>
